<?xml version="1.0" encoding="utf-8"?>
<!-- Designed by Vexels.com - 2016 All Rights Reserved - https://vexels.com/terms-and-conditions/  -->

<svg version="1.0" id="Capa_1" xmlns="http://www.w3.org/2000/svg" xmlns:xlink="http://www.w3.org/1999/xlink" x="0px" y="0px"
	 width="1200px" height="1200px" viewBox="0 0 1200 1200" enable-background="new 0 0 1200 1200" xml:space="preserve">
<g>
	<path fill="#567A3F" d="M561.497,433.018l20.09,132.249h-94.695L655.687,771.11l-34.763-128.702h90.732L561.497,433.018z
		 M693.078,632.871h-84.611l26.427,97.844L507.046,574.801h85.639l-15.79-103.945L693.078,632.871z"/>
	<path fill="#567A3F" d="M966.466,689.829l12.106-99.707l-81.035-10.776l-5.007-40.677l73.489-29.083l-35.628-93.957l-74.346,27.183
		l-23.321-33.66l50.124-58.272l-75.271-66.667l-51.715,57.047l-36.299-18.981l17.005-73.657l-97.032-23.887l-19.095,73.263h-40.958
		l-19.095-73.27l-97.642,24.08l17.159,73.695l-36.272,19.025L391.85,284.67l-75.239,66.63l50.285,58.247l-23.274,33.711
		l-74.315-27.04l-35.623,93.954l73.611,29.016l-4.926,40.644l-80.941,10.952l12.106,99.667l81.239-8.807l14.55,38.299
		l-68.561,48.729l57.008,82.589l69.863-46.964l30.675,27.161l-38.83,76.551l88.819,46.591l40.865-75.557l39.773,9.783l1.209,86.45
		h100.297l1.057-86.534l39.768-9.852l40.951,75.436l88.812-46.632l-39.012-76.558l30.641-27.208l69.861,46.782l57.023-82.593
		l-68.716-48.63l14.47-38.332L966.466,689.829z M966.475,599.488l-9.516,78.388l-78.865-8.424l-20.416,54.058l66.802,47.275
		l-44.818,64.923l-67.938-45.506l-43.214,38.379l37.948,74.479l-69.798,36.644l-39.846-73.394l-56.086,13.892l-1.032,84.185h-78.823
		l-1.178-84.12l-56.102-13.801l-39.757,73.511l-69.805-36.618l37.78-74.479l-43.265-38.306l-67.927,45.667l-44.811-64.919
		l66.669-47.388l-20.523-54.018l-78.916,8.559l-9.52-78.348l78.636-10.645l6.954-57.328l-71.447-28.162l28.012-73.88l72.126,26.24
		l32.827-47.549l-48.763-56.482l59.167-52.402l50.215,55.139l51.163-26.844l-16.634-71.422l76.792-18.938l18.51,71.014h57.766
		l18.514-71.014l76.198,18.762l-16.484,71.403l51.202,26.772l50.14-55.31l59.194,52.429l-48.617,56.515l32.898,47.494l72.143-26.379
		l28.016,73.872l-71.337,28.239l7.06,57.357L966.475,599.488z"/>
	<path fill="#567A3F" d="M599.995,393.794c-114.186,0-207.082,92.894-207.082,207.079c0,114.191,92.896,207.093,207.082,207.093
		S807.08,715.065,807.08,600.873C807.08,486.689,714.182,393.794,599.995,393.794z M599.995,797.084
		c-108.186,0-196.203-88.017-196.203-196.211c0-108.179,88.017-196.193,196.203-196.193c108.188,0,196.203,88.014,196.203,196.193
		C796.199,709.066,708.183,797.084,599.995,797.084z"/>
</g>
</svg>
