<?xml version="1.0" standalone="no"?>
<!DOCTYPE svg PUBLIC "-//W3C//DTD SVG 20010904//EN"
 "http://www.w3.org/TR/2001/REC-SVG-20010904/DTD/svg10.dtd">
<svg version="1.0" xmlns="http://www.w3.org/2000/svg"
 width="136.000000pt" height="37.000000pt" viewBox="0 0 136.000000 37.000000"
 preserveAspectRatio="xMidYMid meet">

<g transform="translate(0.000000,37.000000) scale(0.100000,-0.100000)"
fill="#000000" stroke="none">
<path d="M90 267 c-29 -15 -50 -51 -50 -89 0 -75 58 -113 138 -92 19 6 22 13
22 60 l0 54 -35 0 c-24 0 -35 -5 -35 -15 0 -8 7 -15 16 -15 23 0 15 -54 -9
-58 -30 -6 -47 17 -47 64 0 55 21 78 66 70 37 -8 54 8 25 23 -26 14 -60 14
-91 -2z"/>
<path d="M240 180 l0 -100 60 0 c53 0 60 2 60 20 0 16 -7 20 -35 20 l-35 0 0
80 c0 79 0 80 -25 80 l-25 0 0 -100z"/>
<path d="M427 273 c-6 -10 -57 -178 -57 -187 0 -3 11 -6 25 -6 20 0 25 5 25
25 0 22 4 25 35 25 31 0 35 -3 35 -25 0 -20 5 -25 26 -25 20 0 25 4 22 17 -46
169 -52 183 -80 183 -15 0 -29 -3 -31 -7z m41 -75 c10 -36 9 -38 -13 -38 -22
0 -22 2 -13 40 12 47 13 47 26 -2z"/>
<path d="M570 220 c19 -37 30 -75 30 -100 0 -36 2 -40 25 -40 23 0 25 4 25 43
0 28 10 58 30 92 36 61 36 65 7 65 -19 0 -28 -10 -41 -42 l-18 -43 -19 43
c-16 33 -25 42 -45 42 l-24 0 30 -60z"/>
<path d="M730 180 l0 -102 56 4 c69 6 94 29 101 90 4 37 1 49 -19 73 -20 23
-35 29 -81 33 l-57 4 0 -102z m100 51 c24 -46 5 -121 -30 -121 -18 0 -20 7
-20 70 0 63 2 70 20 70 10 0 24 -9 30 -19z"/>
<path d="M939 251 c-23 -23 -29 -38 -29 -71 0 -53 42 -100 90 -100 48 0 90 47
90 100 0 53 -42 100 -90 100 -22 0 -41 -9 -61 -29z m90 -15 c18 -22 10 -107
-11 -120 -30 -19 -53 4 -56 58 -3 51 9 76 38 76 10 0 23 -6 29 -14z"/>
<path d="M1120 180 c0 -93 1 -100 20 -100 18 0 20 7 21 68 l1 67 25 -68 c24
-61 28 -67 54 -67 l29 0 0 100 c0 95 -1 100 -21 100 -19 0 -20 -5 -17 -70 3
-79 0 -79 -32 8 -20 56 -25 62 -51 62 l-29 0 0 -100z"/>
</g>
</svg>
